<?xml version="1.0" encoding="UTF-8"?>
<svg width="14px" height="14px" viewBox="0 0 14 14" version="1.1" xmlns="http://www.w3.org/2000/svg" xmlns:xlink="http://www.w3.org/1999/xlink">
    <title>MdContentPaste</title>
    <g id="页面-2" stroke="none" stroke-width="1" fill="none" fill-rule="evenodd">
        <g id="Operation-Information" transform="translate(-857.000000, -311.000000)">
            <g id="size=sm,-.leftElement?=true,-.rightElement?=false,-.rightAddon?=true,-.leftAddon?=false备份" transform="translate(848.000000, 302.000000)">
                <g id="MdContentPaste" transform="translate(9.000000, 9.000000)">
                    <path d="M0,0 L14,0 L14,14 L0,14 Z" id="MdContentPaste-(Background)"></path>
                    <path d="M14,0 L14,14 L0,14 L0,0 L14,0 Z" id="Vector" stroke-dasharray="0,0" fill-rule="nonzero"></path>
                    <path d="M8.64499982,1.16666667 C8.39999983,0.490000019 7.75833331,0 7,0 C6.24166669,0 5.60000017,0.490000019 5.35500018,1.16666667 L2.91666667,1.16666667 C2.27499999,1.16666667 1.75,1.69166665 1.75,2.33333333 L1.75,11.6666667 C1.75,12.3083333 2.27499999,12.8333333 2.91666667,12.8333333 L11.0833333,12.8333333 C11.725,12.8333333 12.25,12.3083333 12.25,11.6666667 L12.25,2.33333333 C12.25,1.69166665 11.725,1.16666667 11.0833333,1.16666667 L8.64499982,1.16666667 Z M7.58333333,1.75 C7.58333333,2.07083334 7.32083334,2.33333333 7,2.33333333 C6.67916666,2.33333333 6.41666667,2.07083334 6.41666667,1.75 C6.41666667,1.42916666 6.67916666,1.16666667 7,1.16666667 C7.32083334,1.16666667 7.58333333,1.42916666 7.58333333,1.75 Z M2.91666667,11.6666667 L2.91666667,2.33333333 L4.08333333,2.33333333 L4.08333333,4.08333333 L9.91666667,4.08333333 L9.91666667,2.33333333 L11.0833333,2.33333333 L11.0833333,11.6666667 L2.91666667,11.6666667 Z" id="Vector" fill="#000000" stroke-dasharray="0,0"></path>
                </g>
            </g>
        </g>
    </g>
</svg>