<?xml version="1.0" encoding="UTF-8"?>
<svg width="14px" height="14px" viewBox="0 0 14 14" version="1.1" xmlns="http://www.w3.org/2000/svg" xmlns:xlink="http://www.w3.org/1999/xlink">
    <title>MdFolderOpen</title>
    <g id="页面-2" stroke="none" stroke-width="1" fill="none" fill-rule="evenodd">
        <g id="LND-information" transform="translate(-857.000000, -242.000000)">
            <g id="size=sm,-.leftElement?=true,-.rightElement?=false,-.rightAddon?=true,-.leftAddon?=false" transform="translate(848.000000, 233.000000)">
                <g id="MdFolderOpen" transform="translate(9.000000, 9.000000)">
                    <path d="M0,0 L14,0 L14,14 L0,14 Z" id="MdFolderOpen-(Background)"></path>
                    <path d="M14,0 L14,14 L0,14 L0,0 L14,0 Z" id="Vector" stroke-dasharray="0,0" fill-rule="nonzero"></path>
                    <path d="M7,3.5 L5.83333333,2.33333333 L2.33333333,2.33333333 C1.69166665,2.33333333 1.17249999,2.85833332 1.17249999,3.5 L1.16666667,10.5 C1.16666667,11.1416667 1.69166665,11.6666667 2.33333333,11.6666667 L11.6666667,11.6666667 C12.3083333,11.6666667 12.8333333,11.1416667 12.8333333,10.5 L12.8333333,4.66666667 C12.8333333,4.02499999 12.3083333,3.5 11.6666667,3.5 L7,3.5 Z M2.33333333,10.5 L2.33333333,4.66666667 L11.6666667,4.66666667 L11.6666667,10.5 L2.33333333,10.5 Z" id="Vector" fill="#000000" stroke-dasharray="0,0"></path>
                </g>
            </g>
        </g>
    </g>
</svg>