<?xml version="1.0" standalone="no"?><!DOCTYPE svg PUBLIC "-//W3C//DTD SVG 1.1//EN" "http://www.w3.org/Graphics/SVG/1.1/DTD/svg11.dtd"><svg t="1740486613255" class="icon" viewBox="0 0 1024 1024" version="1.1" xmlns="http://www.w3.org/2000/svg" p-id="8206" xmlns:xlink="http://www.w3.org/1999/xlink" width="200" height="200"><path d="M509.893004 851.226337c-183.565695 0-332.90535-149.339654-332.90535-332.905349s149.339654-332.90535 332.90535-332.90535v63.209876c-148.71177 0-269.695473 120.983704-269.695473 269.695474s120.983704 269.695473 269.695473 269.695473 269.695473-120.983704 269.695473-269.695473h63.209877c0 183.565695-149.339654 332.90535-332.90535 332.905349z" p-id="8207" fill="#1afa29"></path><path d="M512 1024v-63.209877c247.466667 0 448.790123-201.323457 448.790123-448.790123C960.790123 264.537547 759.466667 63.209877 512 63.209877 264.537547 63.209877 63.209877 264.537547 63.209877 512H0C0 229.683621 229.683621 0 512 0S1024 229.683621 1024 512 794.316379 1024 512 1024z" p-id="8208" fill="#1afa29"></path><path d="M486.105021 662.127671l-157.13554-157.139753 44.693597-44.693597 112.441943 112.441942 269.03809-269.03809 44.702025 44.693597z" p-id="8209" fill="#1afa29"></path></svg>