<?xml version="1.0" encoding="UTF-8"?>
<svg width="130px" height="38px" viewBox="0 0 130 38" version="1.1" xmlns="http://www.w3.org/2000/svg" xmlns:xlink="http://www.w3.org/1999/xlink">
    <title>logo</title>
    <g id="页面-2" stroke="none" stroke-width="1" fill="none" fill-rule="evenodd">
        <g id="LND-information" transform="translate(-32.000000, -8.000000)">
            <g id="logo" transform="translate(32.000000, 8.000000)">
                <rect id="矩形" fill="#D8D8D8" opacity="0" x="0" y="0" width="130" height="38"></rect>
                <g id="lnd-desk-LOGO-" transform="translate(3.238949, 0.000000)">
                    <g id="LND-Desk" transform="translate(38.325501, 12.244093)" fill="#000000" fill-rule="nonzero">
                        <polygon id="路径" points="8.72170755 12.8530427 8.72170755 11.1270627 1.87287194 11.1270627 1.87287194 0 0 0 0 12.8530427"></polygon>
                        <polygon id="路径" points="20.0874696 10.0070118 13.9547321 0 10.9985323 0 10.9985323 12.8530427 12.7795967 12.8530427 12.7795967 1.54236512 19.7202398 12.8530427 21.8685341 12.8530427 21.8685341 0 20.0874696 0"></polygon>
                        <path d="M30.3882653,12.8530427 C33.9320327,12.8530427 36.6311717,10.612941 36.6311717,6.38979837 C36.6311717,2.16665577 33.9687557,0 30.6636876,0 L25.577555,0 L25.577555,12.8530427 L30.3882653,12.8530427 Z M27.4504269,1.65253406 L30.4617112,1.65253406 C33.0139583,1.65253406 34.6848538,3.41523706 34.6848538,6.44488284 C34.6848538,9.6948665 32.7018129,11.1637857 30.0210355,11.1637857 L27.4504269,11.1637857 L27.4504269,1.65253406 Z" id="形状"></path>
                        <path d="M49.2087921,12.8530427 C52.7525596,12.8530427 55.4516985,10.612941 55.4516985,6.38979837 C55.4516985,2.16665577 52.7892825,0 49.4842144,0 L44.3980818,0 L44.3980818,12.8530427 L49.2087921,12.8530427 Z M46.2709537,1.65253406 L49.282238,1.65253406 C51.8344851,1.65253406 53.5053806,3.41523706 53.5053806,6.44488284 C53.5053806,9.6948665 51.5223398,11.1637857 48.8415623,11.1637857 L46.2709537,11.1637857 L46.2709537,1.65253406 Z" id="形状"></path>
                        <path d="M65.8810246,7.95052499 C65.8810246,5.21466304 64.2284906,3.45196004 61.7864124,3.45196004 C59.1974424,3.45196004 57.4347394,5.41663943 57.4347394,8.2810318 C57.4347394,11.1454242 59.1974424,13.0733806 61.8782199,13.0733806 C64.0815986,13.0733806 65.4587104,11.7697148 65.8075787,10.0988193 L64.0632372,10.0988193 C63.7694533,10.9985323 63.0166322,11.5493769 61.8965814,11.5493769 C60.3174933,11.5493769 59.2525269,10.4109646 59.1790809,8.40956223 L65.8626631,8.40956223 C65.8810246,8.15250137 65.8810246,8.00560946 65.8810246,7.95052499 Z M61.7864124,4.92087921 C62.9982708,4.92087921 63.8796223,5.67370028 63.9897912,6.94064306 L59.3626958,6.94064306 C59.5646722,5.74714624 60.5378312,4.92087921 61.7864124,4.92087921 Z" id="形状"></path>
                        <path d="M71.5730864,13.0733806 C73.8131881,13.0733806 75.1902998,11.8615223 75.1902998,10.1906267 C75.1902998,8.90532245 74.3640328,7.89544052 72.6380528,7.54657222 L71.0589647,7.2344269 C70.0123598,7.03245051 69.6634915,6.68358221 69.6634915,6.11437603 C69.6634915,5.43500092 70.2510591,4.90251772 71.3894715,4.90251772 C72.5829683,4.90251772 73.2439819,5.50844687 73.3357894,6.26126795 L75.0984924,6.26126795 C74.8414315,4.62709537 73.5744888,3.45196004 71.4629175,3.45196004 C69.3697076,3.45196004 67.9375115,4.62709537 67.9375115,6.24290646 C67.9375115,7.50984924 68.8005015,8.42792372 70.50812,8.813515 L72.0688466,9.1623833 C73.207259,9.41944416 73.4826813,9.82339693 73.4826813,10.3007957 C73.4826813,11.0352552 72.8583907,11.5677384 71.6098094,11.5677384 C70.4163125,11.5677384 69.4615151,11.0903397 69.3329847,10.0988193 L67.5702817,10.0988193 C67.7538966,11.8064378 69.2411772,13.0733806 71.5730864,13.0733806 Z" id="路径"></path>
                        <polygon id="路径" points="85.8216023 12.8530427 82.0758584 7.25278838 85.5645415 3.67229792 83.3978857 3.67229792 79.4134424 7.9321635 79.4134424 0 77.6507394 0 77.6507394 12.8530427 79.4134424 12.8530427 79.4134424 9.80503544 80.8640001 8.33611627 83.7283925 12.8530427"></polygon>
                    </g>
                    <g id="编组">
                        <path d="M13.4557481,6.95691999 C20.8097421,6.95691999 26.7713321,12.91851 26.7713321,20.272504 C26.7713321,27.626498 20.8097421,33.5880881 13.4557481,33.5880881 C6.10175409,33.5880881 0.140164043,27.626498 0.140164043,20.272504 C0.140164043,12.91851 6.10175409,6.95691999 13.4557481,6.95691999 Z M13.4557481,8.18335537 C6.77909564,8.18335537 1.36659942,13.5958516 1.36659942,20.272504 C1.36659942,26.9491565 6.77909564,32.3616527 13.4557481,32.3616527 C20.1324005,32.3616527 25.5448968,26.9491565 25.5448968,20.272504 C25.5448968,13.5958516 20.1324005,8.18335537 13.4557481,8.18335537 Z" id="形状结合" fill="#F2D25C"></path>
                        <polygon id="路径-2" fill="#F2D25C" points="15.9097052 24.0182964 12.1269215 38.0000008 22.8223414 20.786633"></polygon>
                        <path d="M18.3912035,7.90155093 L17.8568025,9.00943838 C16.8718534,8.6242791 15.8240264,8.36458917 14.7329766,8.25002368 L14.5220605,6.99899368 C15.8792268,7.10652813 17.1791111,7.4175505 18.3912035,7.90155093 Z M3.49590492,27.1264903 C4.3325945,28.3399874 5.38551433,29.3932192 6.59897912,30.2303755 L5.32954149,30.821766 C4.29443747,30.0232347 3.38012953,29.0757564 2.61871581,28.0114291 C2.85439777,27.7430772 3.14723866,27.4478071 3.49590492,27.1264903 Z M22.8223414,20.786633 L15.5242134,25.4431588 L15.9097052,24.0182964 L22.8223414,20.786633 Z M25.5633546,14.7230278 C25.9229399,15.5062708 26.2087592,16.3304111 26.4119166,17.1865529 L25.4495014,18.7464797 C25.2884166,17.467594 24.9275474,16.250916 24.3991393,15.1286912 L24.5071893,14.9080571 L25.5633546,14.7230278 Z" id="形状结合" fill="#390C0B" opacity="0.200000003"></path>
                        <polygon id="路径" fill="#E67137" points="7.60541304 6.19008344 20.9656799 0 10.3183548 21.6138586 28.2179527 12.4107072 22.8223414 20.786633 0 31.4549811"></polygon>
                    </g>
                </g>
            </g>
        </g>
    </g>
</svg>