<?xml version="1.0" encoding="UTF-8"?>
<svg width="24px" height="24px" viewBox="0 0 24 24" version="1.1" xmlns="http://www.w3.org/2000/svg" xmlns:xlink="http://www.w3.org/1999/xlink">
    <title>CkQuestion</title>
    <defs>
        <rect id="path-1" x="0" y="0" width="24" height="24"></rect>
    </defs>
    <g id="页面-2" stroke="none" stroke-width="1" fill="none" fill-rule="evenodd">
        <g id="LND-information" transform="translate(-1186.000000, -15.000000)">
            <g id="CkQuestion" transform="translate(1186.000000, 15.000000)">
                <mask id="mask-2" fill="white">
                    <use xlink:href="#path-1"></use>
                </mask>
                <g id="CkQuestion-(Background/Mask)"></g>
                <path d="M5.33316231,2.02236462 C3.35977244,3.34094155 1.8217026,5.21508551 0.913451016,7.40779877 C0.00519943237,9.60051203 -0.232440621,12.0133114 0.230582029,14.3410835 C0.693604678,16.6688557 1.83649385,18.8070508 3.51472402,20.485281 C5.19295418,22.1635112 7.33115005,23.3063999 9.6589222,23.7694225 C11.9866943,24.2324452 14.3994937,23.9948052 16.592207,23.0865536 C18.7849202,22.178302 20.6590632,20.6402333 21.9776402,18.6668434 C23.2962171,16.6934536 24,14.3733759 24,12 C23.9965646,8.81845832 22.7311783,5.76821017 20.4814873,3.51851916 C18.2317963,1.26882815 15.1815474,0.00344108138 12,0 L12,0 C9.62662983,0 7.30655217,0.703787684 5.33316231,2.02236462 Z M11.1666508,18.7472038 C10.919977,18.5823817 10.7277177,18.3481134 10.6141863,18.0740242 C10.5006548,17.799935 10.4709498,17.4983366 10.5288277,17.207365 C10.5867055,16.9163935 10.7295666,16.6491194 10.9393454,16.4393406 C11.1491241,16.2295618 11.4163983,16.0866998 11.7073698,16.0288219 C11.9983413,15.9709441 12.2999417,16.0006501 12.5740309,16.1141815 C12.84812,16.227713 13.0823884,16.4199713 13.2472105,16.6666451 C13.4120326,16.9133188 13.5,17.203328 13.5,17.5 C13.5,17.8978247 13.3419707,18.2793548 13.0606661,18.5606594 C12.7793615,18.841964 12.3978305,19 12,19 C11.7033337,19 11.4133245,18.9120259 11.1666508,18.7472038 Z M13.1632128,13.2889957 C13.0566328,13.4518855 12.9999113,13.6423402 13,13.8369999 C13,14.1022164 12.8946487,14.3565701 12.7071123,14.5441065 C12.5195759,14.7316429 12.2652222,14.8369999 12,14.8369999 C11.7347892,14.8369999 11.4804355,14.7316429 11.2928991,14.5441065 C11.1053628,14.3565701 11,14.1022164 11,13.8369999 C10.9999173,13.2531911 11.1701733,12.6820419 11.4899015,12.1935682 C11.8096298,11.7050945 12.2649363,11.3205234 12.8000059,11.0869999 C13.1305228,10.9427505 13.4158876,10.7118194 13.6258936,10.4186525 C13.8358996,10.1254857 13.9627322,9.78099152 13.9929647,9.42163754 C14.0231973,9.06228355 13.9557056,8.70144123 13.7976332,8.37730789 C13.6395608,8.05317456 13.3967895,7.77781145 13.0950193,7.58036757 C12.7932492,7.38292368 12.4437087,7.27074596 12.0833988,7.25570917 C11.7230889,7.24067238 11.3654165,7.32333621 11.0482445,7.49494982 C10.7310725,7.66656342 10.4662032,7.92074099 10.2816734,8.23057652 C10.0971436,8.54041204 9.99981997,8.89437667 10,9.25500011 C10,9.52021661 9.89464869,9.77457033 9.70711231,9.9621067 C9.51957594,10.1496431 9.26522222,10.2550001 9,10.2550001 C8.73478922,10.2550001 8.48043551,10.1496431 8.29289913,9.9621067 C8.10536276,9.77457033 8,9.52021661 8,9.25500011 C8,8.53383797 8.19494942,7.82608646 8.56423664,7.20664978 C8.93352386,6.5872131 9.46340603,6.07913452 10.0978041,5.73618555 C10.7322021,5.39323658 11.4475157,5.22817531 12.1680412,5.25847054 C12.8885668,5.28876576 13.5874997,5.51329052 14.1908703,5.90828276 C14.7942408,6.30327499 15.2796036,6.85404056 15.5955896,7.50229025 C15.9115757,8.15053993 16.0464306,8.87215865 15.9858828,9.59077454 C15.9253349,10.3093904 15.6716368,10.9982705 15.2516375,11.5845089 C14.8316381,12.1707473 14.2609621,12.6325347 13.6000061,12.9209995 L13.6000061,12.9200001 C13.4215976,12.9978639 13.2697928,13.1261059 13.1632128,13.2889957 Z" id="Vector" fill="#000000" mask="url(#mask-2)"></path>
            </g>
        </g>
    </g>
</svg>