<?xml version="1.0" encoding="UTF-8"?>
<svg width="60px" height="60px" viewBox="0 0 60 60" version="1.1" xmlns="http://www.w3.org/2000/svg" xmlns:xlink="http://www.w3.org/1999/xlink">
    <title>warming</title>
    <g id="页面-2" stroke="none" stroke-width="1" fill="none" fill-rule="evenodd">
        <g id="强提示弹窗" transform="translate(-440.000000, -176.000000)" fill="#E67137">
            <g id="ModalContent" transform="translate(422.000000, 102.000000)">
                <g id="ModalBody" transform="translate(0.000000, 60.000000)">
                    <g id="warming" transform="translate(18.000000, 14.000000)">
                        <rect id="矩形" opacity="0.100000001" x="0" y="0" width="60" height="60" rx="12"></rect>
                        <g id=".status=error" transform="translate(16.000000, 16.000000)">
                            <path d="M0,14 C0,6.26780033 6.26780033,0 14,0 C21.7321997,0 28,6.26780033 28,14 C28,21.7321997 21.7321997,28 14,28 C6.26780033,28 0,21.7321997 0,14 Z M12.6,21 L15.4,21 L15.4,18.2 L12.6,18.2 L12.6,21 Z M12.6,15.4 L15.4,15.4 L15.4,7 L12.6,7 L12.6,15.4 Z" id="Vector"></path>
                        </g>
                    </g>
                </g>
            </g>
        </g>
    </g>
</svg>